<?xml version="1.0" standalone="no"?>
<!DOCTYPE svg PUBLIC "-//W3C//DTD SVG 1.1//EN" "http://www.w3.org/Graphics/SVG/1.1/DTD/svg11.dtd" >
<svg>
<metadata>
Created by FontForge 20110222 at Mon Mar  7 13:16:25 2011
 By www-data
Copyright chaosunited 2010
</metadata>
<defs>
<font id="Communist" horiz-adv-x="608" >
  <font-face 
    font-family="Communist"
    font-weight="400"
    font-stretch="normal"
    units-per-em="1024"
    panose-1="0 0 4 0 0 0 0 0 0 0"
    ascent="819"
    descent="-205"
    x-height="800"
    cap-height="800"
    bbox="0 -224 704 1024"
    underline-thickness="51"
    underline-position="127"
    unicode-range="U+0020-201D"
  />
    <missing-glyph />
    <glyph glyph-name="space" unicode=" " horiz-adv-x="384" 
 />
    <glyph glyph-name="exclam" unicode="!" horiz-adv-x="288" 
d="M64 0v192h192v-192h-192zM64 256v544h192v-544h-192z" />
    <glyph glyph-name="quotedbl" unicode="&#x22;" horiz-adv-x="544" 
d="M64 512v288h192v-288h-192zM320 512v288h192v-288h-192z" />
    <glyph glyph-name="numbersign" unicode="#" horiz-adv-x="736" 
d="M416 352v96h-96v-96h96zM160 64v128h-128v160h128v96h-128v160h128v128h160v-128h96v128h160v-128h128v-160h-128v-96h128v-160h-128v-128h-160v128h-96v-128h-160z" />
    <glyph glyph-name="dollar" unicode="$" 
d="M416 160v160h-32v-160h32zM224 480v160h-32v-160h32zM224 -160v160h-192v160h192v160h-192v480h192v160h160v-160h192v-160h-192v-160h192v-480h-192v-160h-160z" />
    <glyph glyph-name="ampersand" unicode="&#x26;" 
d="M224 -224v160h160v-160h-160zM32 0v800h544v-160h-384v-160h384v-160h-384v-160h384v-160h-544zM224 864v160h160v-160h-160z" />
    <glyph glyph-name="quotesingle" unicode="'" horiz-adv-x="288" 
d="M64 512v288h192v-288h-192z" />
    <glyph glyph-name="parenleft" unicode="(" horiz-adv-x="320" 
d="M192 0l-160 160v480l160 160h96v-128l-32 -32h-64v-480h64l32 -32v-128h-96z" />
    <glyph glyph-name="parenright" unicode=")" horiz-adv-x="320" 
d="M32 0v128l32 32h64v480h-64l-32 32v128h96l160 -160v-480l-160 -160h-96z" />
    <glyph glyph-name="plus" unicode="+" 
d="M224 128v192h-192v160h192v192h160v-192h192v-160h-192v-192h-160z" />
    <glyph glyph-name="comma" unicode="," horiz-adv-x="288" 
d="M128 -128v32l64 64v32h-128v192h192v-256l-64 -64h-64z" />
    <glyph glyph-name="hyphen" unicode="-" 
d="M32 320v160h544v-160h-544z" />
    <glyph glyph-name="period" unicode="." horiz-adv-x="288" 
d="M64 0v192h192v-192h-192z" />
    <glyph glyph-name="slash" unicode="/" horiz-adv-x="672" 
d="M48 0l400 800h176l-400 -800h-176z" />
    <glyph glyph-name="zero" unicode="0" 
d="M416 160v480h-224v-480h224zM32 0v800h544v-800h-544z" />
    <glyph glyph-name="one" unicode="1" 
d="M32 0v160h192v480h-192v160h352v-640h192v-160h-544z" />
    <glyph glyph-name="two" unicode="2" 
d="M32 0v352h384v288h-384v160h544v-608h-384v-32h384v-160h-544z" />
    <glyph glyph-name="three" unicode="3" 
d="M32 0v160h384v32h-384v160h384v288h-384v160h544v-800h-544z" />
    <glyph glyph-name="four" unicode="4" 
d="M416 0v320h-384v480h160v-320h224v320h160v-800h-160z" />
    <glyph glyph-name="five" unicode="5" 
d="M32 0v160h384v288h-384v352h544v-160h-384v-32h384v-608h-544z" />
    <glyph glyph-name="six" unicode="6" 
d="M416 160v160h-224v-160h224zM32 0v800h160v-320h384v-480h-544z" />
    <glyph glyph-name="seven" unicode="7" 
d="M416 0v640h-384v160h544v-800h-160z" />
    <glyph glyph-name="eight" unicode="8" 
d="M416 160v32h-224v-32h224zM416 352v288h-224v-288h224zM32 0v800h544v-800h-544z" />
    <glyph glyph-name="nine" unicode="9" 
d="M416 352v288h-224v-288h224zM416 0v192h-384v608h544v-800h-160z" />
    <glyph glyph-name="colon" unicode=":" horiz-adv-x="288" 
d="M64 128v192h192v-192h-192zM64 480v192h192v-192h-192z" />
    <glyph glyph-name="semicolon" unicode=";" horiz-adv-x="288" 
d="M128 0v32l64 64v32h-128v192h192v-256l-64 -64h-64zM64 480v192h192v-192h-192z" />
    <glyph glyph-name="less" unicode="&#x3c;" 
d="M576 144l-544 272l544 272v-160l-224 -112l224 -112v-160v0z" />
    <glyph glyph-name="equal" unicode="=" 
d="M32 192v160h544v-160h-544zM32 448v160h544v-160h-544z" />
    <glyph glyph-name="greater" unicode="&#x3e;" 
d="M32 144v160l224 112l-224 112v160l544 -272l-544 -272v0z" />
    <glyph glyph-name="question" unicode="?" horiz-adv-x="480" 
d="M64 0v192h192v-192h-192zM64 256v192h192v160h-192v192h384v-544h-384z" />
    <glyph glyph-name="A" unicode="A" 
d="M416 384v256h-224v-256h224zM32 0v800h544v-800h-160v224h-224v-224h-160z" />
    <glyph glyph-name="B" unicode="B" 
d="M416 160v160h-224v-160h224zM32 0v800h544v-160h-384v-160h384v-480h-544z" />
    <glyph glyph-name="C" unicode="C" 
d="M32 0v800h544v-160h-384v-480h384v-160h-544z" />
    <glyph glyph-name="D" unicode="D" 
d="M416 160v480h-224v-480h224zM32 0v800h384l160 -160v-480l-160 -160h-384z" />
    <glyph glyph-name="E" unicode="E" 
d="M32 0v160h384v160h-384v160h384v160h-384v160h544v-800h-544z" />
    <glyph glyph-name="F" unicode="F" 
d="M32 0v800h544v-160h-384v-160h384v-160h-384v-320h-160z" />
    <glyph glyph-name="G" unicode="G" 
d="M32 0v800h544v-160h-384v-480h224v256h160v-416h-544z" />
    <glyph glyph-name="H" unicode="H" 
d="M32 0v800h384v-160h-224v-160h384v-480h-160v320h-224v-320h-160z" />
    <glyph glyph-name="I" unicode="I" 
d="M32 0v160h192v640h160v-640h192v-160h-544z" />
    <glyph glyph-name="J" unicode="J" 
d="M32 0v160h384v640h160v-800h-544z" />
    <glyph glyph-name="K" unicode="K" 
d="M32 0v800h160v-352l352 352h32v-160l-224 -224v-32l224 -224v-160h-32l-352 352v-352h-160z" />
    <glyph glyph-name="L" unicode="L" 
d="M32 0v800h160v-640h384v-160h-544z" />
    <glyph glyph-name="M" unicode="M" 
d="M32 0v800h544v-800h-160v608h-32v-320h-160v320h-32v-608h-160z" />
    <glyph glyph-name="N" unicode="N" 
d="M32 0v800h160v-448l224 448h160v-800h-160v448l-224 -448h-160z" />
    <glyph glyph-name="O" unicode="O" 
d="M224 160v480h-32v-480h32zM416 160v480h-32v-480h32zM224 -160v160h-192v800h192v160h160v-160h192v-800h-192v-160h-160z" />
    <glyph glyph-name="P" unicode="P" 
d="M416 384v256h-224v-256h224zM32 0v800h544v-576h-384v-224h-160z" />
    <glyph glyph-name="Q" unicode="Q" horiz-adv-x="672" 
d="M320 160v96h96v384h-224v-480h128zM480 -64v64h-448v800h544v-704h64v-160h-160z" />
    <glyph glyph-name="R" unicode="R" 
d="M416 384v256h-224v-256h224zM48 0l112 224h-128v576h544v-800h-160v224h-80l-112 -224h-176z" />
    <glyph glyph-name="S" unicode="S" 
d="M32 0v480h384v160h-384v160h544v-480h-384v-160h384v-160h-544z" />
    <glyph glyph-name="T" unicode="T" 
d="M224 0v640h-192v160h544v-160h-192v-640h-160z" />
    <glyph glyph-name="U" unicode="U" 
d="M32 0v800h160v-640h224v640h160v-800h-544zM160 832v128h128v-128h-128zM320 832v128h128v-128h-128z" />
    <glyph glyph-name="V" unicode="V" 
d="M192 0l-160 160v640h160v-544l96 -96h32l96 96v544h160v-640l-160 -160h-224z" />
    <glyph glyph-name="W" unicode="W" 
d="M32 0v800h160v-608h32v320h160v-320h32v608h160v-800h-544z" />
    <glyph glyph-name="X" unicode="X" 
d="M256 -160v384l-112 -224h-112v128l128 256v32l-128 256v128h112l112 -224v384h96v-384l112 224h112v-128l-128 -256v-32l128 -256v-128h-112l-112 224v-384h-96z" />
    <glyph glyph-name="Y" unicode="Y" 
d="M224 0v320h-192v480h160v-320h224v320h160v-480h-192v-320h-160z" />
    <glyph glyph-name="Z" unicode="Z" 
d="M32 0v160h304l-304 608v32h544v-160h-304l304 -608v-32h-544z" />
    <glyph glyph-name="bracketleft" unicode="[" horiz-adv-x="320" 
d="M32 0v800h256v-160h-96v-480h96v-160h-256z" />
    <glyph glyph-name="backslash" unicode="\" horiz-adv-x="672" 
d="M448 0l-400 800h176l400 -800h-176z" />
    <glyph glyph-name="bracketright" unicode="]" horiz-adv-x="320" 
d="M32 0v160h96v480h-96v160h256v-800h-256z" />
    <glyph glyph-name="underscore" unicode="_" 
d="M0 0v160h608v-160h-608z" />
    <glyph glyph-name="a" unicode="a" 
d="M416 384v256h-224v-256h224zM32 0v800h544v-800h-160v224h-224v-224h-160z" />
    <glyph glyph-name="b" unicode="b" 
d="M416 160v160h-224v-160h224zM32 0v800h544v-160h-384v-160h384v-480h-544z" />
    <glyph glyph-name="c" unicode="c" 
d="M32 0v800h544v-160h-384v-480h384v-160h-544z" />
    <glyph glyph-name="d" unicode="d" 
d="M416 160v480h-224v-480h224zM32 0v800h384l160 -160v-480l-160 -160h-384z" />
    <glyph glyph-name="e" unicode="e" 
d="M32 0v160h384v160h-384v160h384v160h-384v160h544v-800h-544z" />
    <glyph glyph-name="f" unicode="f" 
d="M32 0v800h544v-160h-384v-160h384v-160h-384v-320h-160z" />
    <glyph glyph-name="g" unicode="g" 
d="M32 0v800h544v-160h-384v-480h224v256h160v-416h-544z" />
    <glyph glyph-name="h" unicode="h" 
d="M32 0v800h384v-160h-224v-160h384v-480h-160v320h-224v-320h-160z" />
    <glyph glyph-name="i" unicode="i" 
d="M32 0v160h192v640h160v-640h192v-160h-544z" />
    <glyph glyph-name="j" unicode="j" 
d="M32 0v160h384v640h160v-800h-544z" />
    <glyph glyph-name="k" unicode="k" 
d="M32 0v800h160v-352l352 352h32v-160l-224 -224v-32l224 -224v-160h-32l-352 352v-352h-160z" />
    <glyph glyph-name="l" unicode="l" 
d="M32 0v800h160v-640h384v-160h-544z" />
    <glyph glyph-name="m" unicode="m" 
d="M32 0v800h544v-800h-160v608h-32v-320h-160v320h-32v-608h-160z" />
    <glyph glyph-name="n" unicode="n" 
d="M32 0v800h160v-448l224 448h160v-800h-160v448l-224 -448h-160z" />
    <glyph glyph-name="o" unicode="o" 
d="M224 160v480h-32v-480h32zM416 160v480h-32v-480h32zM224 -160v160h-192v800h192v160h160v-160h192v-800h-192v-160h-160z" />
    <glyph glyph-name="p" unicode="p" 
d="M416 384v256h-224v-256h224zM32 0v800h544v-576h-384v-224h-160z" />
    <glyph glyph-name="q" unicode="q" horiz-adv-x="672" 
d="M320 160v96h96v384h-224v-480h128zM480 -64v64h-448v800h544v-704h64v-160h-160z" />
    <glyph glyph-name="r" unicode="r" 
d="M416 384v256h-224v-256h224zM48 0l112 224h-128v576h544v-800h-160v224h-80l-112 -224h-176z" />
    <glyph glyph-name="s" unicode="s" 
d="M32 0v480h384v160h-384v160h544v-480h-384v-160h384v-160h-544z" />
    <glyph glyph-name="t" unicode="t" 
d="M224 0v640h-192v160h544v-160h-192v-640h-160z" />
    <glyph glyph-name="u" unicode="u" 
d="M32 0v800h160v-640h224v640h160v-800h-544zM160 832v128h128v-128h-128zM320 832v128h128v-128h-128z" />
    <glyph glyph-name="v" unicode="v" 
d="M192 0l-160 160v640h160v-544l96 -96h32l96 96v544h160v-640l-160 -160h-224z" />
    <glyph glyph-name="w" unicode="w" 
d="M32 0v800h160v-608h32v320h160v-320h32v608h160v-800h-544z" />
    <glyph glyph-name="x" unicode="x" 
d="M256 -160v384l-112 -224h-112v128l128 256v32l-128 256v128h112l112 -224v384h96v-384l112 224h112v-128l-128 -256v-32l128 -256v-128h-112l-112 224v-384h-96z" />
    <glyph glyph-name="y" unicode="y" 
d="M224 0v320h-192v480h160v-320h224v320h160v-480h-192v-320h-160z" />
    <glyph glyph-name="z" unicode="z" 
d="M32 0v160h304l-304 608v32h544v-160h-304l304 -608v-32h-544z" />
    <glyph glyph-name="braceleft" unicode="{" horiz-adv-x="480" 
d="M192 0v320h160v-160h96v-160h-256zM32 320v160h160v-160h-160zM192 480v320h256v-160h-96v-160h-160z" />
    <glyph glyph-name="bar" unicode="|" horiz-adv-x="288" 
d="M64 0v800h192v-800h-192z" />
    <glyph glyph-name="braceright" unicode="}" horiz-adv-x="480" 
d="M32 0v160h96v160h160v-320h-256zM288 320v160h160v-160h-160zM128 480v160h-96v160h256v-320h-160z" />
    <glyph glyph-name="quoteleft" unicode="&#x2018;" horiz-adv-x="288" 
d="M64 480v256l64 64h64v-32l-64 -64v-32h128v-192h-192z" />
    <glyph glyph-name="quoteright" unicode="&#x2019;" horiz-adv-x="288" 
d="M128 480v32l64 64v32h-128v192h192v-256l-64 -64h-64z" />
    <glyph glyph-name="quotedblleft" unicode="&#x201c;" horiz-adv-x="544" 
d="M64 480v256l64 64h64v-32l-64 -64v-32h128v-192h-192zM320 480v256l64 64h64v-32l-64 -64v-32h128v-192h-192z" />
    <glyph glyph-name="quotedblright" unicode="&#x201d;" horiz-adv-x="544" 
d="M128 480v32l64 64v32h-128v192h192v-256l-64 -64h-64zM384 480v32l64 64v32h-128v192h192v-256l-64 -64h-64z" />
  </font>
</defs>
</svg>
